<?xml version="1.0" encoding="UTF-8"?><svg id="Layer_2" xmlns="http://www.w3.org/2000/svg" viewBox="0 0 991.72 913.19"><defs><style>.cls-1{fill:#8176ff;}</style></defs><g id="icon-0"><g id="tight-bounds"><g><path class="cls-1" d="M946.75,297.7H510.6c-16.75,0-16.75,25.96,0,25.96h436.15c16.75-.01,16.75-25.96,0-25.96h0Z"/><path class="cls-1" d="M979.65,223.76h-403.28c-16.09,0-16.09,24.97,0,24.97h403.28c16.08,0,16.08-24.97,0-24.97h0Z"/><path class="cls-1" d="M900.02,150.58H463.87c-16.74,0-16.74,25.95,0,25.95h436.15c16.73,.01,16.73-25.95,0-25.95h0Z"/><path class="cls-1" d="M495.01,440.49c-62.99,0-114.24-51.25-114.24-114.24,0-3.59,.37-6.77,.83-9.67-45.4-15.64-76.99-58.83-76.99-108.02,0-63,51.25-114.24,114.24-114.24,3.64,0,7.27,.16,10.89,.51C438.11,40.41,484.32,0,541.73,0c54.04,0,101.11,38.36,111.92,91.23,1.61,7.96-3.51,15.74-11.47,17.36-7.94,1.6-15.75-3.5-17.37-11.47-8.02-39.23-42.95-67.69-83.08-67.69-47.07,0-83.93,36.59-83.93,83.29,0,4.88-2.42,9.45-6.47,12.2-4.04,2.73-9.18,3.29-13.72,1.48l-2.89-1.16c-5.2-.98-10.53-1.48-15.87-1.48-46.76,0-84.8,38.04-84.8,84.81,0,40.44,28.74,75.43,68.34,83.21,4.36,.85,8.09,3.65,10.17,7.55,2.07,3.93,2.26,8.58,.52,12.67l-1.25,2.92c-.16,.88-.34,1.75-.5,2.6-.64,3.31-1.15,5.93-1.15,8.73,0,46.76,38.04,84.8,84.8,84.8,34.54,0,65.33-20.62,78.48-52.57,3.08-7.51,11.69-11.11,19.2-8.01,7.52,3.09,11.11,11.69,8.02,19.2-17.67,43.02-59.16,70.82-105.68,70.82Z"/><path class="cls-1" d="M943.18,769.92H206.69c-16.81,0-16.81,26.04,0,26.04H943.18c16.81,0,16.81-26.04,0-26.04h0Z"/><path class="cls-1" d="M976.2,695.72H272.69c-16.15,0-16.15,25.06,0,25.06H976.2c16.13,0,16.13-25.06,0-25.06h0Z"/><path class="cls-1" d="M896.28,622.29H159.8c-16.8,0-16.8,26.05,0,26.05H896.28c16.82,0,16.82-26.05,0-26.05h0Z"/><path class="cls-1" d="M191.05,913.19c-63.21,0-114.63-51.4-114.63-114.62,0-3.6,.36-6.8,.83-9.7C31.68,773.16,0,729.82,0,680.47c0-63.22,51.42-114.63,114.63-114.63,3.65,0,7.29,.17,10.92,.52,8.41-54.61,54.77-95.16,112.39-95.16,54.22,0,101.45,38.48,112.32,91.54,1.62,7.98-3.53,15.79-11.52,17.44-7.98,1.6-15.81-3.53-17.43-11.52-8.06-39.37-43.12-67.93-83.37-67.93-47.22,0-84.21,36.72-84.21,83.58,0,4.89-2.43,9.47-6.49,12.23-4.06,2.75-9.23,3.3-13.77,1.48l-2.9-1.16c-5.21-1-10.57-1.48-15.93-1.48-46.91,0-85.08,38.17-85.08,85.1,0,40.57,28.83,75.67,68.57,83.49,4.38,.85,8.12,3.65,10.21,7.59,2.07,3.95,2.27,8.62,.52,12.72l-1.25,2.92c-.17,.87-.34,1.76-.5,2.61-.64,3.31-1.16,5.94-1.16,8.76,0,46.92,38.18,85.09,85.09,85.09,34.66,0,65.56-20.69,78.75-52.74,3.09-7.54,11.73-11.17,19.27-8.04,7.54,3.1,11.14,11.72,8.04,19.25-17.75,43.17-59.38,71.05-106.06,71.05Z"/></g></g></g></svg>